<mxfile host="app.diagrams.net" modified="2023-10-19T10:20:04.954Z" agent="Mozilla/5.0 (Macintosh; Intel Mac OS X 10_15_7) AppleWebKit/537.36 (KHTML, like Gecko) Chrome/117.0.0.0 Safari/537.36" etag="qdwG5LEWGEGbg0vgZx0h" version="21.7.5" type="device">
  <diagram name="Page-1" id="ixfng07qHzkLjMLRV_Uh">
    <mxGraphModel dx="2156" dy="689" grid="1" gridSize="10" guides="1" tooltips="1" connect="1" arrows="1" fold="1" page="1" pageScale="1" pageWidth="850" pageHeight="1100" math="0" shadow="0">
      <root>
        <mxCell id="0" />
        <mxCell id="1" parent="0" />
        <mxCell id="CSpDNdnUPyL0H3q6vi0O-1" value="App" style="rounded=0;whiteSpace=wrap;html=1;" vertex="1" parent="1">
          <mxGeometry x="80" y="140" width="120" height="60" as="geometry" />
        </mxCell>
        <mxCell id="CSpDNdnUPyL0H3q6vi0O-2" value="CRM" style="rounded=0;whiteSpace=wrap;html=1;" vertex="1" parent="1">
          <mxGeometry x="425" y="400" width="120" height="60" as="geometry" />
        </mxCell>
        <mxCell id="CSpDNdnUPyL0H3q6vi0O-3" value="customer" style="text;html=1;strokeColor=none;fillColor=none;align=center;verticalAlign=middle;whiteSpace=wrap;rounded=0;" vertex="1" parent="1">
          <mxGeometry x="-10" y="160" width="60" height="30" as="geometry" />
        </mxCell>
        <mxCell id="CSpDNdnUPyL0H3q6vi0O-4" value="ops" style="text;html=1;strokeColor=none;fillColor=none;align=center;verticalAlign=middle;whiteSpace=wrap;rounded=0;" vertex="1" parent="1">
          <mxGeometry x="460" y="490" width="60" height="30" as="geometry" />
        </mxCell>
        <mxCell id="CSpDNdnUPyL0H3q6vi0O-5" value="" style="endArrow=classic;html=1;rounded=0;" edge="1" parent="1" source="CSpDNdnUPyL0H3q6vi0O-4">
          <mxGeometry width="50" height="50" relative="1" as="geometry">
            <mxPoint x="450" y="510" as="sourcePoint" />
            <mxPoint x="500" y="460" as="targetPoint" />
          </mxGeometry>
        </mxCell>
        <mxCell id="CSpDNdnUPyL0H3q6vi0O-7" value="" style="endArrow=classic;html=1;rounded=0;exitX=1;exitY=0.5;exitDx=0;exitDy=0;" edge="1" parent="1" source="CSpDNdnUPyL0H3q6vi0O-3">
          <mxGeometry width="50" height="50" relative="1" as="geometry">
            <mxPoint x="30" y="220" as="sourcePoint" />
            <mxPoint x="80" y="170" as="targetPoint" />
          </mxGeometry>
        </mxCell>
        <mxCell id="CSpDNdnUPyL0H3q6vi0O-8" value="LB" style="rounded=0;whiteSpace=wrap;html=1;" vertex="1" parent="1">
          <mxGeometry x="270" y="140" width="120" height="60" as="geometry" />
        </mxCell>
        <mxCell id="CSpDNdnUPyL0H3q6vi0O-9" value="" style="endArrow=classic;html=1;rounded=0;exitX=1.017;exitY=0.617;exitDx=0;exitDy=0;exitPerimeter=0;" edge="1" parent="1" source="CSpDNdnUPyL0H3q6vi0O-1">
          <mxGeometry width="50" height="50" relative="1" as="geometry">
            <mxPoint x="220" y="230" as="sourcePoint" />
            <mxPoint x="270" y="180" as="targetPoint" />
          </mxGeometry>
        </mxCell>
        <mxCell id="CSpDNdnUPyL0H3q6vi0O-10" value="user service" style="rounded=0;whiteSpace=wrap;html=1;" vertex="1" parent="1">
          <mxGeometry x="610" y="40" width="120" height="60" as="geometry" />
        </mxCell>
        <mxCell id="CSpDNdnUPyL0H3q6vi0O-11" value="employ service" style="rounded=0;whiteSpace=wrap;html=1;" vertex="1" parent="1">
          <mxGeometry x="710" y="160" width="120" height="60" as="geometry" />
        </mxCell>
        <mxCell id="CSpDNdnUPyL0H3q6vi0O-12" value="Middle ware service" style="rounded=0;whiteSpace=wrap;html=1;" vertex="1" parent="1">
          <mxGeometry x="430" y="140" width="120" height="60" as="geometry" />
        </mxCell>
        <mxCell id="CSpDNdnUPyL0H3q6vi0O-13" value="Ticketing servicce" style="rounded=0;whiteSpace=wrap;html=1;" vertex="1" parent="1">
          <mxGeometry x="550" y="250" width="120" height="60" as="geometry" />
        </mxCell>
        <mxCell id="CSpDNdnUPyL0H3q6vi0O-14" value="" style="endArrow=classic;html=1;rounded=0;exitX=1;exitY=0.5;exitDx=0;exitDy=0;" edge="1" parent="1" source="CSpDNdnUPyL0H3q6vi0O-8">
          <mxGeometry width="50" height="50" relative="1" as="geometry">
            <mxPoint x="380" y="220" as="sourcePoint" />
            <mxPoint x="430" y="170" as="targetPoint" />
          </mxGeometry>
        </mxCell>
        <mxCell id="CSpDNdnUPyL0H3q6vi0O-15" value="" style="endArrow=classic;html=1;rounded=0;exitX=0.25;exitY=1;exitDx=0;exitDy=0;entryX=0;entryY=0.25;entryDx=0;entryDy=0;" edge="1" parent="1" source="CSpDNdnUPyL0H3q6vi0O-12" target="CSpDNdnUPyL0H3q6vi0O-13">
          <mxGeometry width="50" height="50" relative="1" as="geometry">
            <mxPoint x="490" y="300" as="sourcePoint" />
            <mxPoint x="540" y="250" as="targetPoint" />
          </mxGeometry>
        </mxCell>
        <mxCell id="CSpDNdnUPyL0H3q6vi0O-16" value="" style="endArrow=classic;html=1;rounded=0;exitX=1.025;exitY=0.367;exitDx=0;exitDy=0;exitPerimeter=0;" edge="1" parent="1" source="CSpDNdnUPyL0H3q6vi0O-12">
          <mxGeometry width="50" height="50" relative="1" as="geometry">
            <mxPoint x="580" y="150" as="sourcePoint" />
            <mxPoint x="630" y="100" as="targetPoint" />
          </mxGeometry>
        </mxCell>
        <mxCell id="CSpDNdnUPyL0H3q6vi0O-17" value="Assigment service" style="rounded=0;whiteSpace=wrap;html=1;" vertex="1" parent="1">
          <mxGeometry x="650" y="350" width="120" height="60" as="geometry" />
        </mxCell>
        <mxCell id="CSpDNdnUPyL0H3q6vi0O-18" value="" style="endArrow=classic;html=1;rounded=0;exitX=0.25;exitY=1;exitDx=0;exitDy=0;" edge="1" parent="1" source="CSpDNdnUPyL0H3q6vi0O-13">
          <mxGeometry width="50" height="50" relative="1" as="geometry">
            <mxPoint x="600" y="400" as="sourcePoint" />
            <mxPoint x="650" y="350" as="targetPoint" />
          </mxGeometry>
        </mxCell>
        <mxCell id="CSpDNdnUPyL0H3q6vi0O-19" value="" style="endArrow=classic;html=1;rounded=0;exitX=0.867;exitY=0.017;exitDx=0;exitDy=0;exitPerimeter=0;" edge="1" parent="1" source="CSpDNdnUPyL0H3q6vi0O-17">
          <mxGeometry width="50" height="50" relative="1" as="geometry">
            <mxPoint x="620" y="360" as="sourcePoint" />
            <mxPoint x="670" y="310" as="targetPoint" />
          </mxGeometry>
        </mxCell>
        <mxCell id="CSpDNdnUPyL0H3q6vi0O-20" value="" style="endArrow=classic;html=1;rounded=0;exitX=0;exitY=0.75;exitDx=0;exitDy=0;entryX=0.842;entryY=-0.033;entryDx=0;entryDy=0;entryPerimeter=0;" edge="1" parent="1" source="CSpDNdnUPyL0H3q6vi0O-10" target="CSpDNdnUPyL0H3q6vi0O-12">
          <mxGeometry width="50" height="50" relative="1" as="geometry">
            <mxPoint x="510" y="90" as="sourcePoint" />
            <mxPoint x="560" y="40" as="targetPoint" />
          </mxGeometry>
        </mxCell>
        <mxCell id="CSpDNdnUPyL0H3q6vi0O-21" value="" style="endArrow=classic;html=1;rounded=0;exitX=0.75;exitY=0;exitDx=0;exitDy=0;" edge="1" parent="1" source="CSpDNdnUPyL0H3q6vi0O-2">
          <mxGeometry width="50" height="50" relative="1" as="geometry">
            <mxPoint x="510" y="360" as="sourcePoint" />
            <mxPoint x="560" y="310" as="targetPoint" />
          </mxGeometry>
        </mxCell>
        <mxCell id="CSpDNdnUPyL0H3q6vi0O-22" value="Notification service" style="rounded=0;whiteSpace=wrap;html=1;" vertex="1" parent="1">
          <mxGeometry x="290" y="260" width="120" height="60" as="geometry" />
        </mxCell>
        <mxCell id="CSpDNdnUPyL0H3q6vi0O-23" value="" style="endArrow=classic;html=1;rounded=0;exitX=0;exitY=0.75;exitDx=0;exitDy=0;" edge="1" parent="1" source="CSpDNdnUPyL0H3q6vi0O-13">
          <mxGeometry width="50" height="50" relative="1" as="geometry">
            <mxPoint x="400" y="350" as="sourcePoint" />
            <mxPoint x="420" y="295" as="targetPoint" />
          </mxGeometry>
        </mxCell>
        <mxCell id="CSpDNdnUPyL0H3q6vi0O-24" value="" style="endArrow=classic;html=1;rounded=0;" edge="1" parent="1">
          <mxGeometry width="50" height="50" relative="1" as="geometry">
            <mxPoint x="280" y="290" as="sourcePoint" />
            <mxPoint x="140" y="200" as="targetPoint" />
          </mxGeometry>
        </mxCell>
        <mxCell id="CSpDNdnUPyL0H3q6vi0O-26" value="Ticket collection&lt;br&gt;&lt;br&gt;ticket_id&lt;br&gt;userId&lt;br&gt;status&lt;br&gt;employId&lt;br&gt;create_at&lt;br&gt;updated_at&lt;br&gt;create_by&lt;br&gt;updated_by&lt;br&gt;" style="text;html=1;align=center;verticalAlign=middle;resizable=0;points=[];autosize=1;strokeColor=none;fillColor=none;" vertex="1" parent="1">
          <mxGeometry x="-165" y="260" width="110" height="160" as="geometry" />
        </mxCell>
        <mxCell id="CSpDNdnUPyL0H3q6vi0O-27" value="ticket_action&lt;br&gt;&lt;br&gt;ticket_msg_id&lt;br&gt;ticket_id&lt;br&gt;ticket_note&lt;br&gt;create_at&lt;br&gt;update_at&lt;br&gt;create_by&lt;br&gt;updated_by&lt;br&gt;employ_id&lt;br&gt;old_satus&lt;br&gt;new_status&lt;br&gt;" style="text;html=1;align=center;verticalAlign=middle;resizable=0;points=[];autosize=1;strokeColor=none;fillColor=none;" vertex="1" parent="1">
          <mxGeometry x="-160" y="508" width="100" height="190" as="geometry" />
        </mxCell>
        <mxCell id="CSpDNdnUPyL0H3q6vi0O-28" value="Audit service" style="rounded=0;whiteSpace=wrap;html=1;" vertex="1" parent="1">
          <mxGeometry x="730" y="250" width="120" height="60" as="geometry" />
        </mxCell>
        <mxCell id="CSpDNdnUPyL0H3q6vi0O-29" value="" style="endArrow=classic;html=1;rounded=0;" edge="1" parent="1" source="CSpDNdnUPyL0H3q6vi0O-13">
          <mxGeometry width="50" height="50" relative="1" as="geometry">
            <mxPoint x="670" y="330" as="sourcePoint" />
            <mxPoint x="740.7106781186548" y="280" as="targetPoint" />
          </mxGeometry>
        </mxCell>
        <mxCell id="CSpDNdnUPyL0H3q6vi0O-30" value="Employ panel" style="rounded=0;whiteSpace=wrap;html=1;" vertex="1" parent="1">
          <mxGeometry x="710" y="463" width="120" height="60" as="geometry" />
        </mxCell>
        <mxCell id="CSpDNdnUPyL0H3q6vi0O-31" value="" style="endArrow=classic;html=1;rounded=0;" edge="1" parent="1">
          <mxGeometry width="50" height="50" relative="1" as="geometry">
            <mxPoint x="790" y="460" as="sourcePoint" />
            <mxPoint x="820" y="320" as="targetPoint" />
          </mxGeometry>
        </mxCell>
      </root>
    </mxGraphModel>
  </diagram>
</mxfile>
